<svg xmlns="http://www.w3.org/2000/svg" xmlns:xlink="http://www.w3.org/1999/xlink" version="1.1" x="0px" y="0px" width="100px" height="100px" viewBox="0 0 100 100" enable-background="new 0 0 100 100" xml:space="preserve">
<g id="Captions">
</g>
<g id="Your_Icon">
	<path d="M36.107,19.675v-3.711c0-1.942,1.574-3.516,3.517-3.516h20.122c1.942,0,3.517,1.574,3.517,3.516v3.711h6.447v-3.711   C69.71,10.47,65.24,6,59.746,6H39.624c-5.494,0-9.964,4.47-9.964,9.963v3.711H36.107z"/>
	<path d="M59.068,57.166c0,0.747-0.606,1.354-1.354,1.354H41.656c-0.748,0-1.354-0.606-1.354-1.354v-7.85   c0-0.747,0.606-1.353,1.354-1.353h16.059c0.747,0,1.354,0.605,1.354,1.353V57.166z"/>
	<path d="M57.715,61.881H41.656c-2.6,0-4.715-2.115-4.715-4.715v-2.449c-12.215-0.823-24.108-2.817-35.572-5.866v32.917   c0,4.64,3.762,8.402,8.402,8.402h79.826c4.641,0,8.402-3.763,8.402-8.402V48.853c-11.462,3.049-23.355,5.043-35.571,5.865v2.448   C62.429,59.766,60.314,61.881,57.715,61.881z"/>
	<path d="M41.656,44.603h16.059c2.6,0,4.714,2.114,4.714,4.714v1.567C74.645,50.062,86.538,48.067,98,45.019v-13.58   c0-4.641-3.762-8.403-8.402-8.403H9.772c-4.641,0-8.402,3.762-8.402,8.403v13.578c11.463,3.05,23.356,5.044,35.572,5.866v-1.566   C36.941,46.717,39.057,44.603,41.656,44.603z"/>
</g>
</svg>