<svg xmlns="http://www.w3.org/2000/svg" xmlns:xlink="http://www.w3.org/1999/xlink" version="1.1" id="Layer_1" x="0px" y="0px" width="100px" height="100px" viewBox="0 0 100 100" enable-background="new 0 0 100 100" xml:space="preserve">
<g>
	<path d="M88.74,76.764c-0.099-0.328-0.259-0.611-0.488-0.84c-1.547-1.546-5.566-0.035-8.978,3.377   c-3.411,3.41-4.924,7.43-3.377,8.976c0.229,0.232,0.514,0.392,0.841,0.489c0.246,0.075,0.518,0.112,0.807,0.117l13.216,1.906   l-1.905-13.218C88.852,77.281,88.814,77.012,88.74,76.764z"/>
	<path d="M87.066,67.452L70.344,50.731L95,26.078L73.923,5L49.266,29.656l-6.379-6.379c-2.452-2.454-8.82-0.055-14.226,5.348   c-0.406,0.406-0.793,0.819-1.163,1.232l44.177,44.18c0.37-0.415,0.757-0.827,1.164-1.235   C78.245,67.401,84.614,65.002,87.066,67.452z M57.271,26.268l11.307,11.307l2.307-2.305L59.579,23.962l6.019-6.019l9.308,9.306   l2.305-2.307l-9.306-9.308l6.02-6.017l16.461,16.461l-22.35,22.347L51.575,31.964L57.271,26.268z"/>
	<path d="M24.385,34.075c-2.178,3.707-2.724,7.129-1.077,8.778l6.381,6.379L5,73.923L26.078,95l24.69-24.69l16.721,16.72   c-1.648-1.648-1.102-5.07,1.076-8.776L24.385,34.075z M26.078,90.386L9.617,73.923l6.02-6.017l9.306,9.306l2.309-2.308   l-9.308-9.308l6.019-6.017l11.309,11.307l2.305-2.307L26.271,57.271l5.727-5.732l16.463,16.463L26.078,90.386z"/>
	<path d="M20.067,39.611c-2.448-2.451-0.054-8.82,5.352-14.226c5.408-5.406,11.776-7.802,14.228-5.35l-8.064-8.063   c-3.631-3.63-10.955-2.191-16.361,3.217c-5.404,5.405-6.846,12.729-3.216,16.36L20.067,39.611z"/>
</g>
</svg>