<svg xmlns="http://www.w3.org/2000/svg" xmlns:xlink="http://www.w3.org/1999/xlink" version="1.1" id="pictogram" x="0px" y="0px" width="20px" height="20px" viewBox="0 0 20 20" enable-background="new 0 0 20 20" xml:space="preserve">
<path id="franchise" d="M18.2,8H17l-3,10L11,8H9L6,18L3,8H1.8C0.8,8,0,8.8,0,9.9v7.3c0,1,0.8,1.8,1.8,1.8h16.3c1,0,1.8-0.8,1.8-1.8  V9.9C20,8.8,19.2,8,18.2,8z M10.8,15.5H8V15h2.8V15.5z M18.8,15.5H16V15h2.8V15.5z M7.2,8.4L6,13L4.8,8.4L6,7.7L7.2,8.4z M15.2,8.4  L14,13l-1.2-4.6L14,7.7L15.2,8.4z M9,4c0,1.7-1.3,3-3,3S3,5.7,3,4s1.3-3,3-3S9,2.3,9,4z M17,4c0,1.7-1.3,3-3,3c-1.7,0-3-1.3-3-3  s1.3-3,3-3C15.7,1,17,2.3,17,4z"/>
</svg>