<svg xmlns="http://www.w3.org/2000/svg" xmlns:xlink="http://www.w3.org/1999/xlink" version="1.1" id="Layer_1" x="0px" y="0px" width="100px" height="100px" viewBox="0 0 100 100" enable-background="new 0 0 100 100" xml:space="preserve">
<ellipse cx="50.138" cy="18.957" rx="4.938" ry="5.928"/>
<path d="M50.47,76.694c-14.477,0-22.051-4.324-22.051-8.596c0-3.052,2.159-6.947,12.449-8.171c0.785-0.105,1.495,0.466,1.588,1.251  c0.094,0.783-0.466,1.494-1.25,1.587c-3.708,0.441-9.928,1.721-9.928,5.333c0,2.339,7.477,5.736,19.192,5.736  s19.192-3.397,19.192-5.736c0-2.436-4.194-4.528-10.687-5.334c-0.784-0.097-1.341-0.811-1.243-1.594  c0.097-0.784,0.812-1.343,1.595-1.242c8.385,1.038,13.194,4.017,13.194,8.17C72.521,72.37,64.946,76.694,50.47,76.694z"/>
<path d="M50.594,82.861c-14.859,0-30.852-4.494-30.852-14.36c0-7.121,10.649-11.574,21.204-12.828  c0.781-0.102,1.495,0.467,1.588,1.251s-0.467,1.495-1.251,1.588c-12.264,1.458-18.681,6.129-18.681,9.989  c0,5.715,9.615,11.501,27.993,11.501c14.193,0,28.873-4.302,28.873-11.501c0-4.143-6.88-9.188-20.028-10.818  c-0.783-0.097-1.34-0.811-1.242-1.595c0.097-0.783,0.812-1.343,1.594-1.242c13.479,1.671,22.536,7.158,22.536,13.655  C82.326,77.929,66.363,82.861,50.594,82.861z"/>
<path d="M50.523,89.304c-12.412,0-22.794-2.107-30.024-6.094C13.89,79.566,10.25,74.574,10.25,69.153  c0-8.77,12.538-16.152,31.2-18.37c0.786-0.09,1.495,0.467,1.588,1.251s-0.467,1.495-1.25,1.588  c-18.828,2.237-28.679,9.507-28.679,15.531c0,8.327,11.708,17.291,37.414,17.291c25.331,0,36.869-8.964,36.869-17.291  c0-5.954-9.656-13.177-28.11-15.463c-0.783-0.098-1.34-0.812-1.242-1.595c0.097-0.783,0.812-1.339,1.594-1.243  c18.313,2.268,30.617,9.624,30.617,18.3C90.25,79.183,77.967,89.304,50.523,89.304z"/>
<path d="M50.339,71.868c-1.458,0-14.243-0.131-14.243-4.646c0-2.447,3.638-3.362,4.833-3.663c0.767-0.191,1.542,0.273,1.735,1.039  c0.193,0.765-0.272,1.542-1.038,1.734c-1.295,0.325-2.038,0.665-2.419,0.898c1.154,0.723,4.981,1.778,11.131,1.778  c6.151,0,9.978-1.057,11.131-1.779c-0.429-0.264-1.314-0.656-2.915-1.016c-0.771-0.173-1.256-0.938-1.083-1.708  c0.175-0.771,0.938-1.254,1.708-1.082c3.635,0.816,5.4,2.059,5.4,3.798C64.581,71.737,51.797,71.868,50.339,71.868z"/>
<path d="M43.561,35.776c0.615,1.194,0.192,24.828,1.107,29.516c0.706,3.62,4.142,3.062,4.343-0.447  c0.147-2.552,0.065-11.523,0.432-15.175c0.099-0.99,0.492-1.539,0.908-1.461c0.334,0.063,0.652,0.538,0.703,1.331  c0.239,3.715-0.188,12.004,0.003,15.306c0.202,3.51,3.812,4.067,4.519,0.447c0.914-4.688,1.108-27.176,1.738-29.516  c0.81-3.009,1.763,6.498,1.366,10.639c-0.283,2.963,3.781,3.986,3.983-0.108c0.232-4.714-0.326-10.96-1.446-14.281  c-1.509-4.477-7.909-5.173-11.096-5.171c-3.042,0.003-9.419,1.133-10.698,6.18c-0.864,3.41-1.21,8.555-0.504,13.381  c0.593,4.05,3.734,2.962,3.432,0.219C41.795,41.6,42.148,33.035,43.561,35.776z"/>
</svg>