<svg xmlns="http://www.w3.org/2000/svg" xmlns:xlink="http://www.w3.org/1999/xlink" version="1.1" x="0px" y="0px" width="100px" height="100px" viewBox="0 0 100 100" enable-background="new 0 0 100 100" xml:space="preserve">
<g id="Captions">
</g>
<g id="Your_Icon">
	<path d="M50,58.449l-20.73-6.771v14.335c5.538,4.844,12.78,7.786,20.714,7.788c0.006,0,0.011,0.002,0.016,0.002   c0.006,0,0.011-0.002,0.017-0.002c7.935-0.002,15.175-2.944,20.714-7.788V51.679L50,58.449z"/>
	<path d="M49.202,38.524c0.144-0.441,0.618-0.682,1.06-0.538l24.959,8.151c0.264,0.087,0.455,0.293,0.535,0.539l24.164-7.891   L50,22.483L0.081,38.785L50,55.087l23.605-7.708l-23.866-7.794C49.299,39.44,49.057,38.965,49.202,38.524z"/>
	<path d="M77.361,56.435c0-0.965-0.547-1.794-1.344-2.218l-0.217-7.281l-0.002-0.027c-0.002-0.08-0.02-0.158-0.043-0.233   l-2.15,0.703l0.496,0.162l-0.195,6.557c-0.93,0.372-1.586,1.276-1.586,2.338c0,1.007,0.594,1.869,1.447,2.273l-0.51,17.057   c0,0.031,0,0.068,0,0.102c0.029,0.939,0.812,1.678,1.754,1.65c0.938-0.029,1.678-0.812,1.648-1.752l-0.512-17.184   C76.873,58.138,77.361,57.346,77.361,56.435z"/>
</g>
</svg>