<?xml version="1.0" encoding="utf-8"?>
<!-- Generator: Adobe Illustrator 16.0.0, SVG Export Plug-In . SVG Version: 6.00 Build 0)  -->
<!DOCTYPE svg PUBLIC "-//W3C//DTD SVG 1.1//EN" "http://www.w3.org/Graphics/SVG/1.1/DTD/svg11.dtd">
<svg version="1.1" id="Layer_1" xmlns="http://www.w3.org/2000/svg" xmlns:xlink="http://www.w3.org/1999/xlink" x="0px" y="0px"
	 width="99.999px" height="64.541px" viewBox="0.018 17.549 99.999 64.541" enable-background="new 0.018 17.549 99.999 64.541"
	 xml:space="preserve">
<g id="Your_Icon">
	<path d="M19.052,30.137c3.989,1.021,6.533-0.342,6.533-0.342s21.898-9.672,25.208-11.455c3.311-1.782,7.129,0,7.129,0
		s14.345,7.89,16.122,8.911c1.787,1.021,3.818,5.093,1.699,9.252c-2.119,4.155-8.398,1.357-8.398,1.357l-14.008-7.807
		c-9.252,2.885-42.181,28.431-42.181,28.431L0.293,56.107c-1.699-19.857,5.01-28.856,5.01-28.856S15.063,29.117,19.052,30.137z
		 M95.177,27.759l-9.589,2.378c0,0-4.326,0.596-5.85,0c0,0,1.436,5.234-0.938,7.88s-4.16,4.087-7.979,4.087
		s-5.684-1.611-7.128-2.544c-1.445-0.933-10.103-5.859-10.103-5.859S41.625,38.623,13.96,60.78c0,0-3.398,2.207-1.191,5.684
		c0,0,2.036,2.881,6.113,0c4.072-2.891,12.812-8.828,12.812-8.828s0.938-0.596,1.528,0c0.596,0.596,0.259,0.938-0.166,1.357
		s-12.138,8.75-12.138,8.75s-1.528,1.777,0.254,3.808c1.782,2.041,2.803,2.207,5.176,0.596c2.377-1.611,12.733-9.667,12.733-9.667
		s1.357-0.85,2.036,0.078c0.679,0.938,0.508,1.191,0,1.699S29.491,72.83,29.491,72.83s-1.782,1.777-0.171,3.564
		s3.481,2.031,5.688,0.42s7.89-5.938,7.89-5.938s1.104-1.103,2.207-0.254c1.104,0.85-0.425,2.119-0.425,2.119l-6.347,4.58
		c0,0-1.714,1.533,0.83,3.486c2.549,1.953,2.632,1.445,4.839,0s5.263-3.818,5.263-3.818s-4.584-9.169,1.357-13.163
		c0,0,2.378-1.689,5.259-1.777c0,0,0-4.756,4.844-6.196c4.833-1.445,6.532,1.187,6.532,1.187s1.533-2.28,4.58-2.119
		c3.057,0.166,4.814,1.357,4.814,1.357s1.475-2.124,4.951-1.953s6.532,4.58,6.532,4.58l11.631-2.29
		C99.767,56.615,101.632,38.54,95.177,27.759z M85.334,63.153c0,0-0.166-3.818-1.865-4.668s-5.43-1.357-6.279,2.334l-0.537,0.127
		c0,0-0.996-2.461-4.727-2.461c0,0-3.311-0.254-3.223,3.652l-0.938,0.078c0,0-1.699-4.404-5.517-2.793
		c-3.818,1.611-3.652,4.326-2.285,7.383c0,0-0.664,0.508-0.889,0.508c-0.215,0-2.002-3.057-4.717-1.699c0,0-3.735,0.43-2.119,7.216
		c1.611,6.787,1.523,5.771,1.523,5.771s0.938,4.16,4.59,2.969c3.643-1.191,3.135-4.16,2.969-5.01c0,0,3.983,2.979,6.112,2.129
		c2.119-0.85,3.135-2.637,2.793-6.201c0,0,1.699,3.311,4.756,2.373c3.057-0.928,2.803-3.984,2.969-4.403c0,0,1.104,2.372,3.652,1.61
		C84.143,71.297,84.738,68.075,85.334,63.153z"/>
</g>
</svg>
