<svg xmlns="http://www.w3.org/2000/svg" xmlns:xlink="http://www.w3.org/1999/xlink" version="1.1" id="Your_Icon" x="0px" y="0px" width="100px" height="100px" viewBox="0 0 100 100" enable-background="new 0 0 100 100" xml:space="preserve">
<path d="M64.165,44.77c0.111-0.935,0.181-1.881,0.181-2.849c0-0.969-0.069-1.915-0.181-2.849c-2.185-0.822-4.472-1.611-4.818-2.691  c-0.351-1.093,1.012-3.109,2.307-5.045c-0.913-1.655-2.025-3.164-3.311-4.526c-2.241,0.619-4.571,1.317-5.507,0.631  c-0.923-0.676-0.978-3.085-1.067-5.428c-1.667-0.8-3.458-1.374-5.316-1.734c-1.464,1.836-2.951,3.75-4.133,3.75  c-1.182,0-2.668-1.914-4.132-3.75c-1.858,0.36-3.648,0.935-5.315,1.734c-0.09,2.342-0.146,4.752-1.069,5.428  c-0.934,0.686-3.266-0.012-5.507-0.631c-1.283,1.362-2.396,2.871-3.31,4.526c1.295,1.936,2.657,3.952,2.309,5.045  c-0.349,1.08-2.635,1.869-4.821,2.691c-0.111,0.934-0.18,1.88-0.18,2.849c0,0.968,0.068,1.914,0.18,2.849  c2.186,0.822,4.472,1.61,4.821,2.69c0.348,1.093-1.014,3.109-2.309,5.045c0.913,1.656,2.027,3.165,3.31,4.535  c2.241-0.618,4.573-1.327,5.507-0.64c0.924,0.677,0.979,3.085,1.069,5.429c1.667,0.797,3.457,1.373,5.315,1.733  c1.464-1.836,2.95-3.751,4.132-3.751c1.182,0,2.669,1.915,4.133,3.751c1.858-0.36,3.648-0.937,5.316-1.733  c0.09-2.344,0.145-4.752,1.067-5.429c0.936-0.688,3.266,0.021,5.507,0.64c1.285-1.37,2.397-2.879,3.311-4.535  c-1.295-1.937-2.657-3.952-2.307-5.045C59.693,46.38,61.98,45.592,64.165,44.77z M42.32,53.745c-6.531,0-11.823-5.293-11.823-11.824  c0-6.531,5.292-11.823,11.823-11.823s11.823,5.292,11.823,11.823C54.143,48.452,48.851,53.745,42.32,53.745z"/>
<path d="M88.507,27.812c0.071-0.603,0.116-1.214,0.116-1.838c0-0.625-0.045-1.236-0.116-1.838c-1.409-0.531-2.886-1.04-3.109-1.736  c-0.227-0.706,0.653-2.006,1.489-3.255c-0.59-1.068-1.308-2.042-2.137-2.921c-1.446,0.4-2.949,0.85-3.554,0.407  c-0.596-0.436-0.63-1.991-0.688-3.502c-1.075-0.516-2.231-0.886-3.43-1.119c-0.945,1.185-1.904,2.419-2.667,2.419  c-0.762,0-1.721-1.235-2.667-2.419c-1.197,0.233-2.354,0.603-3.429,1.119c-0.059,1.511-0.095,3.066-0.69,3.502  c-0.603,0.443-2.107-0.007-3.554-0.407c-0.827,0.879-1.546,1.853-2.136,2.921c0.836,1.249,1.715,2.55,1.489,3.255  c-0.224,0.697-1.699,1.206-3.109,1.736c-0.072,0.602-0.116,1.213-0.116,1.838c0,0.625,0.044,1.235,0.116,1.838  c1.41,0.53,2.886,1.039,3.109,1.736c0.226,0.705-0.653,2.006-1.489,3.256c0.59,1.068,1.309,2.042,2.136,2.926  c1.446-0.399,2.951-0.856,3.554-0.412c0.596,0.436,0.632,1.99,0.69,3.502c1.075,0.514,2.231,0.886,3.429,1.119  c0.946-1.185,1.905-2.42,2.667-2.42c0.763,0,1.722,1.236,2.667,2.42c1.198-0.232,2.354-0.604,3.43-1.119  c0.059-1.512,0.093-3.066,0.688-3.502c0.604-0.444,2.107,0.013,3.554,0.412c0.829-0.884,1.547-1.857,2.137-2.926  c-0.836-1.25-1.716-2.551-1.489-3.256C85.621,28.851,87.098,28.342,88.507,27.812z M74.411,33.603c-4.214,0-7.629-3.416-7.629-7.629  c0-4.214,3.415-7.628,7.629-7.628s7.629,3.414,7.629,7.628C82.04,30.188,78.625,33.603,74.411,33.603z"/>
<path d="M89.38,78.02L71.16,59.87c3.06-4.88,4.91-10.61,5.12-16.75c-0.62,0.07-1.24,0.1-1.87,0.1c-1.891,0-3.7-0.3-5.4-0.87  C68.78,56.87,56.9,68.62,42.32,68.62c-14.72,0-26.7-11.98-26.7-26.7s11.98-26.7,26.7-26.7c5.89,0,11.35,1.92,15.77,5.17  c0.8-2.35,2.101-4.47,3.78-6.24c-5.53-3.92-12.28-6.21-19.55-6.21c-18.74,0-33.98,15.24-33.98,33.98  c0,18.74,15.24,33.98,33.98,33.98c6.13,0,11.89-1.62,16.85-4.471l18.45,18.34c3.03,3.051,7.97,3.051,11,0l0.76-0.75  C92.42,85.99,92.42,81.05,89.38,78.02z"/>
</svg>